<svg width="14" height="13" viewBox="0 0 14 13" fill="none" xmlns="http://www.w3.org/2000/svg">
<path fill-rule="evenodd" clip-rule="evenodd" d="M7.28487 0.817998C7.57523 1.1134 7.57115 1.58825 7.27575 1.87862L3.0829 6H12.75C13.1642 6 13.5 6.33579 13.5 6.75C13.5 7.16421 13.1642 7.5 12.75 7.5H3.09051L7.2742 11.5886C7.57044 11.8781 7.5759 12.353 7.28639 12.6492C6.99688 12.9454 6.52204 12.9509 6.2258 12.6614L0.7258 7.28639C0.581673 7.14554 0.500293 6.95261 0.500001 6.75109C0.499709 6.54956 0.580529 6.3564 0.724248 6.21513L6.22425 0.808881C6.51965 0.518516 6.9945 0.522598 7.28487 0.817998Z" fill="#606367"/>
</svg>
