<svg width="16" height="16" viewBox="0 0 16 16" fill="none" xmlns="http://www.w3.org/2000/svg">
<path fill-rule="evenodd" clip-rule="evenodd" d="M6.74292 0.532964C7.43719 -0.177655 8.56281 -0.177655 9.25708 0.532964L15.7397 7.16823C16.0868 7.52353 16.0868 8.0996 15.7397 8.45491C15.3925 8.81022 14.8297 8.81022 14.4826 8.45491L13.9683 7.92848V14.1804C13.9683 15.1853 13.1723 16 12.1905 16H3.80952C2.82768 16 2.03175 15.1853 2.03175 14.1803V7.92848L1.51743 8.45491C1.1703 8.81022 0.607482 8.81022 0.26035 8.45491C-0.0867832 8.0996 -0.0867832 7.52353 0.26035 7.16823L6.74292 0.532964ZM3.80952 6.10883V14.1803L12.1905 14.1804L12.1905 6.10883L8 1.81965L3.80952 6.10883Z" fill="black" fill-opacity="0.87"/>
</svg>
