<svg width="52" height="12" viewBox="0 0 52 12" fill="none" xmlns="http://www.w3.org/2000/svg">
<path d="M0.476702 12C0.265652 12 0.120556 11.9024 0.0414123 11.7072C-0.0377312 11.5119 -0.00343573 11.3405 0.144299 11.1927L11.1927 0.144299C11.3405 -0.00343563 11.5119 -0.0377312 11.7072 0.0414123C11.9024 0.120556 12 0.265652 12 0.476702V11.5251C12 11.6623 11.9552 11.7758 11.8655 11.8655C11.7758 11.9552 11.6623 12 11.5251 12H0.476702Z" fill="black" fill-opacity="0.87"/>
<path d="M28 12C27.9316 12 27.8688 11.988 27.8118 11.9641C27.7547 11.9401 27.6977 11.8982 27.6407 11.8383L20.1459 3.97006C20.0432 3.86227 19.9947 3.73653 20.0005 3.59281C20.0062 3.4491 20.0603 3.32934 20.163 3.23353C21.2581 2.21557 22.4673 1.42216 23.7906 0.853293C25.1139 0.284431 26.517 0 28 0C29.483 0 30.8861 0.284431 32.2094 0.853293C33.5327 1.42216 34.7419 2.21557 35.837 3.23353C35.9397 3.32934 35.9938 3.4491 35.9995 3.59281C36.0053 3.73653 35.9568 3.86227 35.8541 3.97006L28.3593 11.8383C28.3023 11.8982 28.2453 11.9401 28.1882 11.9641C28.1312 11.988 28.0684 12 28 12Z" fill="black" fill-opacity="0.87"/>
<path d="M49.5 0H46.5V1.2H45C44.4477 1.2 44 1.60294 44 2.1C44 2.59706 44 3 44 3H52C52 3 52 2.59706 52 2.1C52 1.60294 51.5523 1.2 51 1.2H49.5V0Z" fill="black" fill-opacity="0.3"/>
<path d="M44 3C44 3.75 44 9.9 44 10.65C44 11.3956 44.4477 12 45 12H51C51.5523 12 52 11.3956 52 10.65C52 9.9 52 3.75 52 3H44Z" fill="black" fill-opacity="0.87"/>
</svg>
