<svg width="9" height="9" viewBox="0 0 9 9" fill="none" xmlns="http://www.w3.org/2000/svg">
<path d="M0.281234 6.81562C0.00509165 7.09177 0.00509153 7.53948 0.281234 7.81562C0.557376 8.09177 1.00509 8.09177 1.28123 7.81562L4.03905 5.05781L6.79686 7.81562C7.073 8.09177 7.52072 8.09177 7.79686 7.81562C8.073 7.53948 8.073 7.09177 7.79686 6.81562L5.03905 4.05781L7.79686 1.3C8.073 1.02386 8.073 0.576141 7.79686 0.299998C7.52072 0.023856 7.073 0.0238561 6.79686 0.299999L4.03905 3.05781L1.28123 0.299999C1.00509 0.0238561 0.557376 0.023856 0.281234 0.299998C0.00509153 0.576141 0.00509165 1.02386 0.281234 1.3L3.03905 4.05781L0.281234 6.81562Z" fill="#5E6063"/>
</svg>
