<svg width="14" height="13" viewBox="0 0 14 13" fill="none" xmlns="http://www.w3.org/2000/svg">
<path fill-rule="evenodd" clip-rule="evenodd" d="M6.71513 0.817998C6.42477 1.1134 6.42885 1.58825 6.72425 1.87862L10.9171 6H1.25C0.835787 6 0.5 6.33579 0.5 6.75C0.5 7.16421 0.835787 7.5 1.25 7.5H10.9095L6.7258 11.5886C6.42956 11.8781 6.4241 12.353 6.71361 12.6492C7.00312 12.9454 7.47796 12.9509 7.7742 12.6614L13.2742 7.28639C13.4183 7.14554 13.4997 6.95261 13.5 6.75109C13.5003 6.54956 13.4195 6.3564 13.2758 6.21513L7.77575 0.808881C7.48035 0.518516 7.0055 0.522598 6.71513 0.817998Z" fill="#BABCBE"/>
</svg>
