<svg width="4" height="14" viewBox="0 0 4 14" fill="none" xmlns="http://www.w3.org/2000/svg">
<path d="M3.5 2.09998C3.5 2.9284 2.82843 3.59998 2 3.59998C1.17157 3.59998 0.5 2.9284 0.5 2.09998C0.5 1.27155 1.17157 0.599976 2 0.599976C2.82843 0.599976 3.5 1.27155 3.5 2.09998Z" fill="#606367"/>
<path d="M3.5 7.09998C3.5 7.9284 2.82843 8.59998 2 8.59998C1.17157 8.59998 0.5 7.9284 0.5 7.09998C0.5 6.27155 1.17157 5.59998 2 5.59998C2.82843 5.59998 3.5 6.27155 3.5 7.09998Z" fill="#606367"/>
<path d="M3.5 12.1C3.5 12.9284 2.82843 13.6 2 13.6C1.17157 13.6 0.5 12.9284 0.5 12.1C0.5 11.2715 1.17157 10.6 2 10.6C2.82843 10.6 3.5 11.2715 3.5 12.1Z" fill="#606367"/>
</svg>
