<svg width="14" height="14" viewBox="0 0 14 14" fill="none" xmlns="http://www.w3.org/2000/svg">
<path d="M2 7C2 4.23858 4.23858 2 7 2C8.50726 2 9.85943 2.6667 10.7768 3.7232L8.5 6H14V0.5L11.8394 2.66063C10.65 1.33512 8.9228 0.5 7 0.5C3.41015 0.5 0.5 3.41015 0.5 7C0.5 10.5899 3.41015 13.5 7 13.5C9.57814 13.5 11.8042 11.999 12.8547 9.8265C13.0351 9.45359 12.8789 9.00512 12.506 8.8248C12.1331 8.64448 11.6847 8.8006 11.5043 9.1735C10.6947 10.8478 8.9812 12 7 12C4.23858 12 2 9.76142 2 7Z" fill="#606367"/>
</svg>
